<?xml version="1.0" encoding="UTF-8"?>
<svg id="Layer_6" data-name="Layer 6" xmlns="http://www.w3.org/2000/svg" viewBox="0 0 514.38 512">
  <defs>
    <style>
      .cls-1 {
        fill: #000;
        stroke-width: 0px;
      }
    </style>
  </defs>
  <path class="cls-1" d="M258.38,0C117,0,2.38,114.62,2.38,256s114.62,256,256,256,256-114.62,256-256S399.77,0,258.38,0ZM160.86,409.26h-37.53c-15.64,0-28.34-12.7-28.34-28.34,0-13.27,9.25-24.76,22.21-27.63l31.78-7.08c24-5.36,44.35-21.19,55.33-43.21h-.06l59.22-118.39h25.53v51.06c0,16.91,13.72,30.63,30.63,30.63h48.63l15.25,30.51c-50.93,68.99-132.62,112.45-222.67,112.45ZM416.08,269.37c-3.89,11.04-18.19,10.4-23.49-.06l-7.47-14.93c-2.62-5.17-7.91-8.49-13.72-8.49h-46.65c-8.49,0-15.32-6.83-15.32-15.32v-51.06c0-8.49-6.83-15.32-15.32-15.32h-10.91c-13.59,0-19.15-15.25-6.89-21,13.15-6.19,27.83-9.64,43.33-9.64,18.06,0,34.97,4.66,49.65,12.89,3.51-11.62,2.36-24.51-3.83-35.61l-3.06-5.55c-4.08-7.4-1.47-16.72,5.94-20.81v-.06c7.4-4.08,16.72-1.47,20.81,5.94l3.06,5.55c12.32,22.15,12.64,48.31,2.17,70.2,17.04,18.25,27.38,42.7,27.38,69.56,0,11.81-1.98,23.17-5.68,33.7Z"/>
</svg>