<?xml version="1.0" encoding="UTF-8"?>
<svg id="Layer_5" data-name="Layer 5" xmlns="http://www.w3.org/2000/svg" viewBox="0 0 514.38 512">
  <defs>
    <style>
      .cls-1 {
        fill: #000;
        stroke-width: 0px;
      }
    </style>
  </defs>
  <path class="cls-1" d="M256,0C114.62,0,0,114.62,0,256s114.62,256,256,256,256-114.62,256-256S397.38,0,256,0ZM277.76,332.57v108.82c0,12.04-9.73,21.76-21.76,21.76s-21.76-9.73-21.76-21.76v-108.82c-84.13,0-152.35-68.22-152.35-152.35,0-12.04,9.73-21.76,21.76-21.76h21.76c84.13,0,152.35,68.22,152.35,152.35v21.76ZM298.03,287.68c-4.83-36.32-20.81-69.1-44.41-94.74,26.05-46.52,75.84-78.01,132.97-78.01h21.76c12.04,0,21.76,9.73,21.76,21.76,0,77.26-57.54,141.13-132.08,150.99Z"/>
</svg>